<?xml version="1.0" standalone="no"?>
<!DOCTYPE svg PUBLIC "-//W3C//DTD SVG 20010904//EN"
 "http://www.w3.org/TR/2001/REC-SVG-20010904/DTD/svg10.dtd">
<svg version="1.0" xmlns="http://www.w3.org/2000/svg"
 width="184.000000pt" height="206.000000pt" viewBox="0 0 184.000000 206.000000"
 preserveAspectRatio="xMidYMid meet">

<g transform="translate(0.000000,206.000000) scale(0.100000,-0.100000)"
fill="#000000" stroke="none">
<path d="M492 1819 c-95 -18 -187 -91 -248 -195 -27 -46 -29 -56 -29 -159 0
-167 0 -167 352 -520 161 -160 299 -298 307 -305 13 -10 39 12 166 139 83 83
155 151 159 151 4 0 23 -16 42 -36 l34 -35 -194 -189 -194 -188 -249 247
c-137 135 -254 247 -261 249 -7 1 -38 -24 -71 -56 l-58 -59 215 -214 c118
-118 262 -260 319 -317 l105 -103 49 47 c169 163 584 578 584 585 0 5 -106
114 -235 243 -129 129 -243 251 -255 272 -30 58 -27 128 9 185 95 151 332 97
349 -80 6 -69 -11 -109 -73 -177 l-55 -59 62 -62 62 -63 48 48 c138 134 175
308 97 457 -57 109 -131 168 -247 193 -174 38 -337 -41 -417 -203 -27 -54 -30
-70 -30 -155 0 -128 26 -181 148 -307 l90 -93 -92 -92 -92 -92 -225 225 c-123
123 -236 241 -251 262 -21 30 -26 49 -26 96 0 102 66 178 166 188 65 7 130
-19 172 -68 30 -36 40 -32 50 18 4 21 18 57 32 81 25 43 25 44 7 62 -32 31
-106 67 -162 79 -60 12 -98 13 -160 0z"/>
</g>
</svg>
